<svg xmlns="http://www.w3.org/2000/svg" width="600" height="600" viewBox="0 0 600 600"><rect width="100%" height="100%" fill="#DDDDDD"/><path fill="#999999" d="M144.46 239.465v96.88h-18.09v-96.88h18.09Zm35.58 96.88h-16.55v-68.74h10.12q3.21 0 4.22 3.01l1.07 5.09q1.81-2.01 3.79-3.68 1.97-1.68 4.22-2.88 2.24-1.21 4.82-1.91t5.66-.7q6.5 0 10.69 3.51 4.19 3.52 6.26 9.35 1.61-3.42 4.02-5.86 2.42-2.45 5.3-3.99t6.13-2.28q3.25-.73 6.53-.73 5.69 0 10.12 1.74 4.42 1.74 7.43 5.09 3.02 3.35 4.59 8.17 1.58 4.83 1.58 11.06v43.75h-16.55v-43.75q0-6.57-2.88-9.88-2.88-3.32-8.44-3.32-2.55 0-4.73.87-2.18.87-3.82 2.51-1.64 1.64-2.58 4.12-.93 2.48-.93 5.7v43.75h-16.62v-43.75q0-6.9-2.78-10.05-2.78-3.15-8.14-3.15-3.62 0-6.74 1.78-3.11 1.77-5.79 4.85v50.32Zm131.99-17.76v-11.59q-7.17.34-12.06 1.24-4.89.91-7.84 2.31-2.95 1.41-4.22 3.29-1.27 1.87-1.27 4.08 0 4.36 2.58 6.24 2.58 1.87 6.73 1.87 5.09 0 8.81-1.84 3.72-1.84 7.27-5.6Zm-34.97-36.11-2.95-5.29q11.86-10.86 28.54-10.86 6.03 0 10.79 1.98 4.75 1.98 8.04 5.5 3.28 3.51 4.99 8.4 1.71 4.89 1.71 10.72v43.42h-7.51q-2.34 0-3.62-.7-1.27-.71-2.01-2.85l-1.47-4.96q-2.61 2.35-5.09 4.12-2.48 1.78-5.16 2.98-2.68 1.21-5.73 1.85-3.05.63-6.73.63-4.36 0-8.04-1.17-3.69-1.17-6.37-3.52-2.68-2.34-4.15-5.83-1.48-3.48-1.48-8.1 0-2.62.88-5.2.87-2.58 2.84-4.92 1.98-2.35 5.13-4.42 3.15-2.08 7.74-3.62t10.68-2.51q6.1-.98 13.94-1.18v-4.02q0-6.9-2.95-10.21-2.95-3.32-8.51-3.32-4.02 0-6.66.94-2.65.94-4.66 2.11-2.01 1.17-3.65 2.11-1.64.94-3.65.94-1.75 0-2.95-.91-1.21-.9-1.94-2.11Zm91.79 17.82q3.08 0 5.36-.83 2.27-.84 3.78-2.32 1.51-1.47 2.28-3.55.77-2.07.77-4.55 0-5.09-3.05-8.08-3.05-2.98-9.14-2.98-6.1 0-9.15 2.98-3.05 2.99-3.05 8.08 0 2.41.77 4.49.77 2.07 2.28 3.58 1.51 1.51 3.82 2.35 2.31.83 5.33.83Zm18.69 39.13q0-2.01-1.21-3.28-1.2-1.27-3.28-1.98-2.08-.7-4.86-1.04-2.78-.33-5.89-.5-3.12-.17-6.44-.3-3.31-.13-6.46-.54-2.75 1.54-4.46 3.62t-1.71 4.83q0 1.81.91 3.38.9 1.57 2.88 2.71t5.13 1.78q3.14.64 7.7.64 4.62 0 7.97-.71 3.35-.7 5.53-1.94t3.18-2.95q1.01-1.71 1.01-3.72Zm-3.28-69.48h19.76v6.17q0 2.94-3.55 3.61l-6.16 1.14q1.4 3.55 1.4 7.78 0 5.09-2.04 9.21-2.04 4.12-5.66 7t-8.54 4.46q-4.93 1.57-10.62 1.57-2.01 0-3.89-.2-1.88-.2-3.69-.54-3.21 1.95-3.21 4.36 0 2.07 1.91 3.05 1.91.97 5.06 1.37 3.15.4 7.17.5 4.02.1 8.24.44 4.22.33 8.24 1.17 4.02.84 7.17 2.65 3.15 1.81 5.06 4.92 1.9 3.12 1.9 8.01 0 4.55-2.24 8.84t-6.5 7.64q-4.25 3.35-10.45 5.39-6.2 2.05-14.1 2.05-7.78 0-13.54-1.51-5.76-1.51-9.58-4.02-3.82-2.51-5.69-5.8-1.88-3.28-1.88-6.83 0-4.82 2.91-8.07 2.92-3.25 8.01-5.2-2.75-1.4-4.35-3.75-1.61-2.34-1.61-6.16 0-1.54.57-3.18.57-1.65 1.67-3.25 1.11-1.61 2.78-3.05 1.68-1.44 3.96-2.58-5.23-2.82-8.21-7.51-2.98-4.69-2.98-10.98 0-5.1 2.04-9.22 2.04-4.12 5.7-7.03 3.65-2.92 8.64-4.46t10.89-1.54q4.42 0 8.3.91 3.89.9 7.11 2.64Zm43.28 24.12h31.22q0-3.21-.9-6.06-.91-2.85-2.72-4.99-1.81-2.15-4.59-3.39-2.78-1.24-6.46-1.24-7.17 0-11.29 4.09-4.12 4.09-5.26 11.59Zm42.21 9.99H427.2q.4 5.29 1.88 9.14 1.47 3.85 3.88 6.37 2.42 2.51 5.73 3.75 3.32 1.24 7.34 1.24t6.93-.94q2.92-.94 5.1-2.08 2.17-1.14 3.82-2.07 1.64-.94 3.18-.94 2.07 0 3.08 1.54l4.76 6.03q-2.75 3.21-6.17 5.39-3.41 2.18-7.13 3.49-3.72 1.3-7.57 1.84-3.86.54-7.47.54-7.17 0-13.34-2.38-6.16-2.38-10.72-7.04-4.55-4.66-7.17-11.52-2.61-6.87-2.61-15.91 0-7.04 2.28-13.24t6.53-10.78q4.26-4.59 10.39-7.27 6.13-2.68 13.83-2.68 6.5 0 11.99 2.07 5.5 2.08 9.45 6.07 3.95 3.98 6.2 9.78 2.24 5.79 2.24 13.23 0 3.75-.8 5.06-.8 1.31-3.08 1.31Z"/></svg>